<svg width="103" height="90" viewBox="0 0 103 90" fill="none" xmlns="http://www.w3.org/2000/svg">
<path d="M101.734 88.713C101.556 88.9631 101.375 89.2114 101.197 89.4578C100.684 89.8121 100.076 90.0012 99.4537 90H3.54639C2.95158 90.0005 2.36938 89.828 1.87029 89.5035C1.70465 89.2844 1.54088 89.0635 1.37524 88.8426L1.54088 88.7513L50.0933 61.755C50.5241 61.516 51.0082 61.3903 51.5005 61.3897C51.9928 61.389 52.4772 61.5134 52.9086 61.7513L101.57 88.6217L101.734 88.713Z" fill="#1E88E5"/>
<path d="M99.4537 31.9472L57.3749 7.57046C55.6051 6.54518 53.5975 6.00492 51.5538 6.00391C49.51 6.0029 47.5019 6.54117 45.7311 7.56471L3.54642 31.9472C2.72625 31.9484 1.94001 32.2757 1.36007 32.8575C0.780123 33.4392 0.453797 34.2279 0.452637 35.0506V86.8965C0.453592 87.7193 0.779851 88.5081 1.35984 89.0899C1.93983 89.6717 2.72619 89.999 3.54642 89.9999H99.4537C100.274 89.9985 101.06 89.6711 101.64 89.0894C102.22 88.5077 102.546 87.7191 102.547 86.8965V35.0506C102.546 34.2279 102.22 33.4392 101.64 32.8575C101.06 32.2757 100.274 31.9484 99.4537 31.9472ZM102.183 86.8965C102.182 87.6222 101.894 88.3177 101.382 88.8308C100.87 89.344 100.177 89.633 99.4537 89.6348H3.54642C2.82283 89.6335 2.12925 89.3446 1.61759 88.8313C1.10594 88.3181 0.817913 87.6223 0.816611 86.8965V35.0506C0.817492 34.3247 1.10538 33.6287 1.61713 33.1153C2.12887 32.602 2.8227 32.3132 3.54642 32.3123L45.7311 7.92982C47.5019 6.90628 49.51 6.36801 51.5538 6.36902C53.5975 6.37003 55.6051 6.91029 57.3749 7.93557L99.4537 32.3123C100.177 32.3132 100.871 32.602 101.383 33.1153C101.895 33.6287 102.183 34.3247 102.183 35.0506V86.8965Z" fill="#E6E6E6"/>
<path d="M51.5547 61.2803C51.2377 61.2813 50.9229 61.2283 50.6236 61.1235L50.5686 61.104L50.5574 60.9813C50.5231 60.9982 50.4885 61.0144 50.4538 61.0298L50.4172 61.0459L50.3806 61.0297C50.3039 60.9959 50.2277 60.9577 50.1542 60.9161L16.6495 42.0302V3.46847C16.6505 2.57307 17.0056 1.71462 17.6367 1.08148C18.2679 0.448334 19.1237 0.0921916 20.0163 0.0911865H82.9839C83.8765 0.0921916 84.7323 0.448334 85.3634 1.08148C85.9946 1.71462 86.3496 2.57307 86.3506 3.46847V42.0795L86.3043 42.1057L52.9551 60.9162C52.527 61.1556 52.0448 61.281 51.5547 61.2803Z" fill="#E6E6E6"/>
<path d="M51.5546 61.3716C51.2273 61.3727 50.9023 61.318 50.5933 61.2097L50.4831 61.1708L50.4784 61.1186L50.4171 61.1457L50.3439 61.1134C50.2645 61.0784 50.1856 61.0388 50.1095 60.9957L16.5585 42.0837V3.46856C16.5595 2.54896 16.9241 1.66732 17.5724 1.01707C18.2206 0.366812 19.0995 0.00104077 20.0162 0H82.9838C83.9006 0.00104462 84.7794 0.366816 85.4277 1.01707C86.0759 1.66733 86.4405 2.54896 86.4416 3.46856V42.1329L52.9996 60.9958C52.5579 61.243 52.0604 61.3723 51.5546 61.3716ZM50.8242 60.9012C51.4933 61.094 52.2112 61.0135 52.8214 60.6775L86.0776 41.9194V3.46856C86.0767 2.64576 85.7504 1.85692 85.1704 1.27511C84.5904 0.693304 83.8041 0.366038 82.9838 0.365112H20.0162C19.196 0.366034 18.4096 0.693301 17.8296 1.27511C17.2496 1.85692 16.9234 2.64576 16.9224 3.46856V41.87L19.1044 43.0992L50.288 60.6776C50.3304 60.7016 50.3735 60.7241 50.4172 60.7452C50.4609 60.7241 50.504 60.7016 50.5463 60.6777L50.7914 60.5392L50.8242 60.9012Z" fill="#E6E6E6"/>
<path d="M101.741 33.2944L88.5345 40.7427L86.2597 42.0261L52.9105 60.8366C52.496 61.0685 52.0292 61.1898 51.5547 61.189C51.248 61.1899 50.9435 61.1386 50.6539 61.0374C50.5733 61.0116 50.4943 60.9811 50.4172 60.9462C50.3427 60.9133 50.2699 60.8768 50.1989 60.8366L19.0154 43.2583L16.7405 41.9768L1.28621 33.2652C1.24418 33.2411 1.21336 33.2012 1.20042 33.1544C1.18747 33.1076 1.19346 33.0576 1.21707 33.0151C1.24075 32.973 1.28011 32.9421 1.32651 32.9291C1.37291 32.9161 1.42255 32.9221 1.46455 32.9458L16.7405 41.5569L19.0154 42.8385L50.3773 60.5172C50.4813 60.5757 50.5896 60.6264 50.7012 60.6687C50.7485 60.6869 50.7977 60.7034 50.8468 60.718C51.1583 60.8139 51.4859 60.8455 51.81 60.811C52.134 60.7765 52.4477 60.6765 52.7322 60.5172L86.2597 41.608L88.5345 40.3247L101.563 32.9768C101.584 32.965 101.607 32.9575 101.63 32.9546C101.654 32.9518 101.678 32.9536 101.701 32.9601C101.724 32.9665 101.745 32.9774 101.764 32.9922C101.783 33.007 101.799 33.0253 101.81 33.0462C101.822 33.067 101.83 33.09 101.833 33.1138C101.835 33.1375 101.834 33.1616 101.827 33.1847C101.821 33.2077 101.81 33.2293 101.795 33.2481C101.78 33.267 101.762 33.2827 101.741 33.2944Z" fill="#E6E6E6"/>
<path d="M30.3122 12.0488H25.2165C24.8304 12.0488 24.4601 11.895 24.187 11.6211C23.914 11.3472 23.7606 10.9757 23.7606 10.5884C23.7606 10.201 23.914 9.82957 24.187 9.55568C24.4601 9.2818 24.8304 9.12793 25.2165 9.12793H30.3122C30.6983 9.12793 31.0686 9.2818 31.3416 9.55568C31.6147 9.82957 31.7681 10.201 31.7681 10.5884C31.7681 10.9757 31.6147 11.3472 31.3416 11.6211C31.0686 11.895 30.6983 12.0488 30.3122 12.0488Z" fill="#1E88E5"/>
<path d="M36.3177 16.9777H25.2165C24.8304 16.9777 24.4601 16.8238 24.187 16.5499C23.914 16.276 23.7606 15.9045 23.7606 15.5172C23.7606 15.1299 23.914 14.7584 24.187 14.4845C24.4601 14.2106 24.8304 14.0568 25.2165 14.0568H36.3177C36.7039 14.0568 37.0742 14.2106 37.3472 14.4845C37.6202 14.7584 37.7736 15.1299 37.7736 15.5172C37.7736 15.9045 37.6202 16.276 37.3472 16.5499C37.0742 16.8238 36.7039 16.9777 36.3177 16.9777Z" fill="##E6E6E6"/>
<path d="M67.333 30.1217H35.8492C35.4631 30.1217 35.0928 29.9678 34.8197 29.6939C34.5467 29.4201 34.3933 29.0486 34.3933 28.6613C34.3933 28.2739 34.5467 27.9024 34.8197 27.6286C35.0928 27.3547 35.4631 27.2008 35.8492 27.2008H67.333C67.7191 27.2008 68.0894 27.3547 68.3625 27.6286C68.6355 27.9024 68.7889 28.2739 68.7889 28.6613C68.7889 29.0486 68.6355 29.4201 68.3625 29.6939C68.0894 29.9678 67.7191 30.1217 67.333 30.1217Z" fill="#1E88E5"/>
<path d="M70.2447 35.7809H32.7553C32.3692 35.7809 31.9989 35.627 31.7259 35.3531C31.4528 35.0792 31.2994 34.7078 31.2994 34.3204C31.2994 33.9331 31.4528 33.5616 31.7259 33.2877C31.9989 33.0139 32.3692 32.86 32.7553 32.86H70.2447C70.6308 32.86 71.0011 33.0139 71.2742 33.2877C71.5472 33.5616 71.7006 33.9331 71.7006 34.3204C71.7006 34.7078 71.5472 35.0792 71.2742 35.3531C71.0011 35.627 70.6308 35.7809 70.2447 35.7809Z" fill="##E6E6E6"/>
<path d="M70.2447 41.2574H32.7553C32.3692 41.2574 31.9989 41.1036 31.7259 40.8297C31.4528 40.5558 31.2994 40.1843 31.2994 39.797C31.2994 39.4097 31.4528 39.0382 31.7259 38.7643C31.9989 38.4904 32.3692 38.3365 32.7553 38.3365H70.2447C70.6308 38.3365 71.0011 38.4904 71.2742 38.7643C71.5472 39.0382 71.7006 39.4097 71.7006 39.797C71.7006 40.1843 71.5472 40.5558 71.2742 40.8297C71.0011 41.1036 70.6308 41.2574 70.2447 41.2574Z" fill="##E6E6E6"/>
</svg>