<svg width="36" height="48" viewBox="0 0 36 48" fill="none" xmlns="http://www.w3.org/2000/svg">
<path d="M14.1196 48.0003H21.8877C24.3569 48.0003 26.3657 45.9916 26.3657 43.5223V36.5964C26.3658 36.5913 26.3687 36.587 26.3687 36.5819V36.4613C26.3687 34.1566 27.4287 31.9212 29.2769 30.328L29.2783 30.327C33.231 26.9076 35.4092 21.951 35.2539 16.7279C34.9922 7.90366 27.8921 0.570656 19.0898 0.0335464C14.2646 -0.263329 9.67627 1.39341 6.1709 4.69126C2.66748 7.98716 0.738281 12.4505 0.738281 17.2582C0.738281 22.3836 2.99512 27.2108 6.9292 30.5018C8.6499 31.9422 9.63672 34.1258 9.63672 36.5819C9.63672 36.5904 9.64136 36.5975 9.6416 36.6061V41.7633C9.64136 41.7727 9.63623 41.7804 9.63623 41.7899C9.63623 41.7994 9.64136 41.8071 9.6416 41.8165V43.5223C9.6416 45.9916 11.6504 48.0003 14.1196 48.0003ZM24.3657 37.5819V40.7899H11.6416V37.5819H24.3657ZM21.8877 46.0003H14.1196C12.7534 46.0003 11.6416 44.8885 11.6416 43.5223V42.7899H24.3657V43.5223C24.3657 44.8885 23.2539 46.0003 21.8877 46.0003ZM8.21289 28.9681C4.73389 26.058 2.73828 21.7899 2.73828 17.2582C2.73828 13.0077 4.44434 9.06187 7.5415 6.1478C10.6406 3.2313 14.6978 1.77036 18.9678 2.02964C26.7476 2.50474 33.0234 8.98716 33.2549 16.7875C33.3921 21.4066 31.4658 25.7904 27.9697 28.8143C25.9156 30.5854 24.648 33.0126 24.4097 35.578H19V29.0228H19.2354C19.7017 29.0228 20.106 28.7005 20.21 28.2459L20.7983 25.6756C21.1367 25.5575 21.4668 25.4193 21.7861 25.2616L24.0132 26.6625C24.4077 26.9105 24.9214 26.8524 25.2515 26.5248L27.0122 24.7709C27.3438 24.4403 27.4023 23.9242 27.1523 23.5287L25.7183 21.2567C25.8579 20.9598 25.9819 20.6522 26.0884 20.3353L28.728 19.7342C29.1831 19.6307 29.5059 19.2259 29.5059 18.7591V16.2674C29.5059 15.8006 29.1831 15.3959 28.728 15.2923L26.0024 14.6717C25.9004 14.3988 25.7852 14.1312 25.6582 13.8695L27.1523 11.5047C27.4019 11.1092 27.3442 10.5941 27.0137 10.2635L25.2529 8.50278C24.9238 8.17319 24.4087 8.11509 24.0132 8.36362L21.5981 9.88462C21.3535 9.77036 21.1055 9.66831 20.854 9.57847L20.21 6.78599C20.105 6.33189 19.7012 6.0106 19.2354 6.0106H16.7578C16.2915 6.0106 15.8867 6.33286 15.7832 6.78745L15.1445 9.57896C14.8936 9.6688 14.6455 9.77085 14.4014 9.88511L11.9795 8.36314C11.5825 8.1146 11.0693 8.17368 10.7388 8.50425L8.98486 10.265C8.65576 10.5951 8.59863 11.1087 8.84668 11.5033L10.3379 13.8729C10.2119 14.1351 10.0981 14.4017 9.99756 14.6717L7.27148 15.2923C6.81641 15.3959 6.49365 15.8006 6.49365 16.2674V18.7591C6.49365 19.2259 6.81641 19.6307 7.27148 19.7342L9.91211 20.3353C10.0186 20.6493 10.1416 20.9549 10.2817 21.2508L8.84717 23.5296C8.59814 23.9247 8.65625 24.4393 8.98633 24.7694L10.7402 26.5233C11.0698 26.8524 11.584 26.912 11.98 26.6625L14.207 25.2616C14.5278 25.4203 14.8599 25.5584 15.2007 25.6766L15.7827 28.244C15.8857 28.6996 16.2905 29.0228 16.7578 29.0228H17V35.578H11.5966C11.3672 32.9726 10.1626 30.6006 8.21289 28.9681ZM12.3027 20.8055C12.0283 20.3221 11.8154 19.7943 11.6704 19.2372C11.5762 18.8763 11.2886 18.5975 10.9248 18.5145L8.49365 17.9613V17.0653L10.9873 16.4979C11.3374 16.4183 11.6182 16.1566 11.7222 15.8124C11.8779 15.2977 12.0933 14.7928 12.3618 14.3124C12.54 13.993 12.5298 13.6019 12.3354 13.2918L10.9639 11.1122L11.5918 10.4818L13.8174 11.8802C14.1265 12.0751 14.5171 12.0858 14.8345 11.9081C15.292 11.6546 15.7715 11.4574 16.2593 11.3221C16.6133 11.224 16.8853 10.9393 16.9668 10.5814L17.5547 8.0106H18.4399L19.0332 10.5829C19.1157 10.9403 19.3872 11.224 19.7407 11.3221C20.2285 11.4574 20.708 11.6546 21.1655 11.9081C21.4844 12.0858 21.875 12.0746 22.1831 11.8797L24.4033 10.4813L25.0342 11.1122L23.6582 13.2904C23.4609 13.6034 23.4521 14.0003 23.6362 14.3211C23.9077 14.7962 24.1177 15.284 24.2778 15.8124C24.3818 16.1566 24.6626 16.4183 25.0127 16.4979L27.5059 17.0653V17.9613L25.0752 18.5145C24.7114 18.5975 24.4238 18.8763 24.3296 19.2372C24.1826 19.8026 23.9697 20.3329 23.6973 20.8133C23.5151 21.1336 23.5244 21.5287 23.7212 21.8402L25.0337 23.9188L24.4043 24.5458L22.3574 23.2582C22.04 23.058 21.6392 23.0516 21.3169 23.243C20.8125 23.5404 20.2651 23.7699 19.6904 23.9256C19.334 24.0223 19.0596 24.308 18.9775 24.6678L18.4385 27.0228H17.5566L17.0229 24.6698C16.9409 24.308 16.6655 24.0213 16.3071 23.9251C15.7295 23.7704 15.1812 23.5409 14.6768 23.243C14.355 23.0536 13.9531 23.0584 13.6357 23.2582L11.5903 24.5448L10.9648 23.9198L12.2793 21.8319C12.4756 21.5204 12.4844 21.1258 12.3027 20.8055Z" fill="#A5A5A5"/>
</svg>
